<?xml version="1.0" encoding="utf-8"?>
<!-- Generator: Adobe Illustrator 26.3.0, SVG Export Plug-In . SVG Version: 6.00 Build 0)  -->
<svg version="1.1" id="Layer_1" xmlns="http://www.w3.org/2000/svg" xmlns:xlink="http://www.w3.org/1999/xlink" x="0px" y="0px"
	 viewBox="0 0 460 82" style="enable-background:new 0 0 460 82;" xml:space="preserve">
<style type="text/css">
	.st0{fill:#0071A8;}
	.st1{fill:#62C7E3;}
	.st2{clip-path:url(#SVGID_00000137828044808829474780000000201078695138332840_);}
	.st3{fill:#14BBE2;}
	.st4{clip-path:url(#SVGID_00000160177505100527067340000009318827614903263926_);}
	.st5{fill:#5B5B5B;}
</style>
<g>
	<path class="st0" d="M54.4,17.17c11.47-4.68,23.22-5.45,32.6-2.9c-10.67-4.63-25.52-4.51-39.93,1.37
		c-22.87,9.33-36,29.58-29.33,45.25c4.92,11.54,19.22,17.36,35.56,15.88c-19.95-4.6-24.44-13.2-26.24-17.43
		C20.84,44.74,33.08,25.86,54.4,17.17z"/>
	<path class="st1" d="M99.68,28.64c-1.24-2.86-3.23-5.27-5.78-7.19c-8.4-6.34-22.89-7.41-36.89-1.8C46.73,23.77,38.91,30.61,35,38
		c4.66-5.71,11.52-10.77,19.91-14.13c17.58-7.04,35.89-4.3,43.63,5.84c0.9,1.18,1.67,2.46,2.27,3.83c0.07,0.16,0.13,0.33,0.19,0.49
		C100.86,32.18,100.44,30.38,99.68,28.64z"/>
	<g>
		<g>
			<defs>
				<rect id="SVGID_1_" x="96.43" y="11.43" width="12.57" height="12.57"/>
			</defs>
			<clipPath id="SVGID_00000178181756534439722360000010787984455958755210_">
				<use xlink:href="#SVGID_1_"  style="overflow:visible;"/>
			</clipPath>
			<g style="clip-path:url(#SVGID_00000178181756534439722360000010787984455958755210_);">
				<path class="st3" d="M108.94,17.88c-4.41,0.81-5.07,1.47-5.89,5.88c-0.81-4.41-1.47-5.06-5.88-5.88
					c4.41-0.81,5.07-1.47,5.88-5.88C103.87,16.42,104.53,17.08,108.94,17.88z"/>
			</g>
		</g>
		<g>
			<defs>
				<rect id="SVGID_00000097497401294546242250000016148811410105290403_" x="87" y="1" width="7.86" height="7.28"/>
			</defs>
			<clipPath id="SVGID_00000170981002507290015220000007548808620556661123_">
				<use xlink:href="#SVGID_00000097497401294546242250000016148811410105290403_"  style="overflow:visible;"/>
			</clipPath>
			<g style="clip-path:url(#SVGID_00000170981002507290015220000007548808620556661123_);">
				<path class="st1" d="M94.27,4.33c-2.2,0.63-2.71,1.14-3.34,3.33c-0.63-2.19-1.14-2.7-3.34-3.33C89.79,3.7,90.3,3.19,90.93,1
					C91.56,3.19,92.07,3.7,94.27,4.33z"/>
			</g>
		</g>
		<path class="st0" d="M103.05,6.57c-1.1,0.32-1.35,0.57-1.67,1.67c-0.32-1.1-0.57-1.35-1.67-1.67c1.1-0.32,1.35-0.57,1.67-1.67
			C101.7,5.99,101.96,6.25,103.05,6.57z"/>
	</g>
	<g>
		<g>
			<g transform="translate(100.724955, 194.624987)">
				<g>
					<path class="st0" d="M-65.42-154.35h6.66c1.85,0,3.36,0.41,4.51,1.21c1.15,0.81,1.73,1.98,1.73,3.52
						c0,1.54-0.58,2.75-1.75,3.62c-1.16,0.88-2.66,1.31-4.48,1.31h-2.5v5.69h-4.16V-154.35z M-61.26-147.48h1.17
						c0.93,0,1.7-0.15,2.3-0.47c0.6-0.32,0.9-0.84,0.9-1.55c0-0.73-0.3-1.26-0.9-1.58c-0.6-0.32-1.37-0.48-2.3-0.48h-1.17V-147.48z"
						/>
				</g>
			</g>
		</g>
		<g>
			<g transform="translate(117.668973, 194.624987)">
				<g>
					<path class="st0" d="M-57.18-154.35v3.07h-6.29v3.05h6.02v3.07h-6.02v3.08h6.29v3.07h-10.45v-15.36H-57.18z"/>
				</g>
			</g>
		</g>
		<g>
			<g transform="translate(132.425018, 194.624987)">
				<g>
					<path class="st0" d="M-69.55-154.35h6.52c1.76,0,3.19,0.4,4.29,1.19c1.1,0.79,1.66,1.91,1.66,3.37c0,1.13-0.34,2.08-1.01,2.84
						c-0.67,0.76-1.58,1.3-2.73,1.61l6.29,6.34h-5.3l-5.57-6.07v6.07h-4.16V-154.35z M-65.39-147.54h0.49c0.38,0,0.7,0,0.96-0.01
						c0.27-0.01,0.57-0.06,0.91-0.14c0.34-0.07,0.61-0.18,0.82-0.31c0.21-0.14,0.38-0.33,0.53-0.59c0.15-0.27,0.23-0.59,0.23-0.96
						c0-0.37-0.08-0.69-0.23-0.95c-0.15-0.26-0.32-0.46-0.53-0.59c-0.2-0.14-0.47-0.24-0.82-0.31c-0.34-0.07-0.64-0.12-0.91-0.14
						c-0.26-0.01-0.58-0.02-0.96-0.02h-0.49V-147.54z"/>
				</g>
			</g>
		</g>
		<g>
			<g transform="translate(150.641104, 194.624987)">
				<g>
					<path class="st0" d="M-61.37-154.35v3.07h-6.4v3.05h5.91v3.07h-5.91v6.16h-4.16v-15.36H-61.37z"/>
				</g>
			</g>
		</g>
		<g>
			<g transform="translate(165.066415, 194.624987)">
				<g>
					<path class="st0" d="M-63.35-154.35v3.07h-6.29v3.05h6.02v3.07h-6.02v3.08h6.29v3.07H-73.8v-15.36H-63.35z"/>
				</g>
			</g>
		</g>
		<g>
			<g transform="translate(179.82246, 194.624987)">
				<g>
					<path class="st0" d="M-66.01-142.16c0.63,0,1.25-0.08,1.85-0.24c0.6-0.16,1.04-0.31,1.32-0.47l0.42-0.24l1.77,2.98
						c-0.05,0.04-0.14,0.09-0.24,0.15c-0.1,0.06-0.34,0.18-0.72,0.34c-0.37,0.17-0.77,0.31-1.21,0.43
						c-0.43,0.12-0.99,0.23-1.69,0.33c-0.69,0.1-1.4,0.15-2.13,0.15c-1.71,0-3.32-0.35-4.84-1.05c-1.52-0.7-2.74-1.66-3.67-2.89
						c-0.93-1.23-1.4-2.55-1.4-3.99c0-1.07,0.27-2.11,0.82-3.1c0.55-1,1.28-1.85,2.19-2.56c0.9-0.71,1.96-1.27,3.18-1.69
						c1.21-0.42,2.45-0.63,3.72-0.63c1.18,0,2.26,0.12,3.26,0.35c1,0.24,1.7,0.47,2.11,0.7l0.63,0.35l-1.77,2.98
						c-0.11-0.07-0.27-0.16-0.48-0.26c-0.2-0.11-0.61-0.25-1.24-0.42c-0.62-0.17-1.24-0.26-1.88-0.26c-1.01,0-1.91,0.14-2.7,0.41
						c-0.8,0.27-1.43,0.64-1.89,1.09c-0.46,0.44-0.82,0.92-1.06,1.44c-0.24,0.51-0.37,1.03-0.37,1.57c0,1.17,0.52,2.21,1.55,3.14
						C-69.44-142.62-67.95-142.16-66.01-142.16z"/>
				</g>
			</g>
		</g>
		<g>
			<g transform="translate(198.97988, 194.624987)">
				<g>
					<path class="st0" d="M-79.38-151.28v-3.07h12.84v3.07h-4.33v12.28h-4.17v-12.28H-79.38z"/>
				</g>
			</g>
		</g>
		<g>
			<g transform="translate(221.088513, 194.624987)">
				<g>
					<path class="st0" d="M-81.1-154.35h5.67c1.71,0,3.07,0.31,4.09,0.93c1.02,0.61,1.54,1.61,1.54,2.98c0,1.54-0.76,2.64-2.28,3.29
						c2.59,0.39,3.89,1.68,3.89,3.87c0,1.3-0.53,2.34-1.59,3.12c-1.06,0.78-2.52,1.17-4.38,1.17h-6.93V-154.35z M-76.95-148.34h0.33
						c0.93,0,1.62-0.13,2.08-0.4c0.46-0.27,0.69-0.72,0.69-1.35c0-1.04-0.92-1.57-2.77-1.57h-0.33V-148.34z M-76.95-141.69h1.3
						c2.04,0,3.06-0.57,3.06-1.71c0-0.69-0.25-1.18-0.76-1.47c-0.51-0.3-1.27-0.45-2.3-0.45h-1.3V-141.69z"/>
				</g>
			</g>
		</g>
		<g>
			<g transform="translate(238.032532, 194.624987)">
				<g>
					<path class="st0" d="M-69.27-154.35v9.91c0,1.88-0.61,3.31-1.82,4.27c-1.22,0.97-2.99,1.45-5.31,1.45
						c-2.33,0-4.1-0.48-5.31-1.45c-1.22-0.97-1.82-2.39-1.82-4.27v-9.91h4.17v8.88c0,1.24,0.23,2.11,0.69,2.59
						c0.46,0.48,1.22,0.72,2.27,0.72c1.05,0,1.81-0.24,2.27-0.72c0.46-0.49,0.69-1.35,0.69-2.59v-8.88H-69.27z"/>
				</g>
			</g>
		</g>
		<g>
			<g transform="translate(256.960978, 194.624987)">
				<g>
					<path class="st0" d="M-81.62-154.35v15.36h-4.16v-15.36H-81.62z"/>
				</g>
			</g>
		</g>
		<g>
			<g transform="translate(264.796953, 194.624987)">
				<g>
					<path class="st0" d="M-82.64-154.35v12.28h6.29v3.07H-86.8v-15.36H-82.64z"/>
				</g>
			</g>
		</g>
		<g>
			<g transform="translate(279.171384, 194.624987)">
				<g>
					<path class="st0" d="M-88.67-154.35h5.29c2.53,0,4.71,0.73,6.51,2.19c1.8,1.46,2.7,3.28,2.7,5.47c0,2.21-0.9,4.04-2.69,5.51
						c-1.79,1.46-3.97,2.18-6.52,2.18h-5.29V-154.35z M-84.51-142.13h0.64c1.52,0,2.76-0.43,3.72-1.29
						c0.97-0.86,1.46-1.94,1.48-3.24c0-1.3-0.49-2.39-1.45-3.26c-0.96-0.87-2.21-1.3-3.75-1.3h-0.64V-142.13z"/>
				</g>
			</g>
		</g>
	</g>
	<g>
		<g transform="translate(171.626419, 213.557081)">
			<g>
				<path class="st5" d="M-108.64-144.08c0-0.47-0.14-0.83-0.4-1.08c-0.25-0.26-0.72-0.51-1.4-0.75c-0.67-0.25-1.18-0.51-1.54-0.77
					c-0.36-0.26-0.64-0.56-0.81-0.9c-0.17-0.34-0.25-0.73-0.25-1.17c0-0.76,0.25-1.39,0.75-1.88c0.51-0.5,1.18-0.75,2-0.75
					c0.55,0,1.05,0.14,1.48,0.4c0.44,0.25,0.78,0.6,1.02,1.04c0.23,0.45,0.35,0.94,0.35,1.48h-1.21c0-0.59-0.15-1.05-0.44-1.38
					c-0.28-0.33-0.68-0.5-1.21-0.5c-0.49,0-0.87,0.14-1.15,0.42c-0.27,0.27-0.4,0.65-0.4,1.15c0,0.41,0.15,0.74,0.44,1.02
					c0.29,0.27,0.73,0.5,1.33,0.71c0.94,0.32,1.61,0.71,2.02,1.17c0.4,0.45,0.6,1.04,0.6,1.77c0,0.78-0.25,1.41-0.75,1.88
					c-0.5,0.46-1.19,0.69-2.06,0.69c-0.56,0-1.07-0.12-1.54-0.35c-0.46-0.25-0.83-0.59-1.1-1.02c-0.27-0.44-0.4-0.95-0.4-1.52h1.21
					c0,0.58,0.16,1.04,0.48,1.38c0.33,0.33,0.78,0.5,1.35,0.5c0.54,0,0.94-0.13,1.21-0.4C-108.78-143.23-108.64-143.6-108.64-144.08
					z"/>
			</g>
		</g>
	</g>
	<g>
		<g transform="translate(179.094957, 213.557081)">
			<g>
				<path class="st5" d="M-105.74-146.08h-3.4v3.38h3.96v1.04h-5.15v-9.56h5.06v1.04h-3.88v3.06h3.4V-146.08z"/>
			</g>
		</g>
	</g>
	<g>
		<g transform="translate(186.34672, 213.557081)">
			<g>
				<path class="st5" d="M-105.03-145.53h-1.67v3.88h-1.21v-9.56h2.67c0.94,0,1.65,0.24,2.12,0.73c0.48,0.49,0.73,1.2,0.73,2.15
					c0,0.58-0.14,1.1-0.4,1.54c-0.25,0.45-0.62,0.78-1.1,1l1.85,4.06v0.08h-1.29L-105.03-145.53z M-106.69-146.55h1.46
					c0.5,0,0.9-0.16,1.19-0.48c0.3-0.33,0.46-0.77,0.46-1.31c0-1.22-0.56-1.83-1.67-1.83h-1.44V-146.55z"/>
			</g>
		</g>
	</g>
	<g>
		<g transform="translate(193.943352, 213.557081)">
			<g>
				<path class="st5" d="M-102.64-143.51l2.19-7.71h1.31l-2.98,9.56h-1.04l-2.98-9.56h1.31L-102.64-143.51z"/>
			</g>
		</g>
	</g>
	<g>
		<g transform="translate(201.835584, 213.557081)">
			<g>
				<path class="st5" d="M-101.49-141.66h-1.21v-9.56h1.21V-141.66z"/>
			</g>
		</g>
	</g>
	<g>
		<g transform="translate(206.599367, 213.557081)">
			<g>
				<path class="st5" d="M-95.15-144.7c-0.06,1.03-0.35,1.81-0.88,2.35c-0.53,0.54-1.27,0.81-2.21,0.81c-0.97,0-1.74-0.36-2.31-1.08
					c-0.56-0.73-0.83-1.73-0.83-2.98v-1.73c0-1.23,0.29-2.21,0.88-2.94c0.58-0.73,1.38-1.1,2.38-1.1c0.92,0,1.62,0.28,2.12,0.83
					c0.51,0.56,0.8,1.35,0.85,2.38h-1.23c-0.06-0.78-0.22-1.33-0.5-1.67c-0.27-0.33-0.68-0.5-1.25-0.5c-0.66,0-1.16,0.26-1.52,0.77
					c-0.35,0.52-0.52,1.27-0.52,2.25v1.75c0,0.97,0.16,1.72,0.48,2.23c0.33,0.52,0.81,0.77,1.44,0.77c0.64,0,1.09-0.15,1.35-0.46
					c0.28-0.32,0.45-0.88,0.52-1.69H-95.15z"/>
			</g>
		</g>
	</g>
	<g>
		<g transform="translate(214.560572, 213.557081)">
			<g>
				<path class="st5" d="M-93.91-146.08h-3.4v3.38h3.96v1.04h-5.15v-9.56h5.06v1.04h-3.88v3.06h3.4V-146.08z"/>
			</g>
		</g>
	</g>
	<g>
		<g transform="translate(221.812335, 213.557081)">
			<g>
				<path class="st5" d="M-91.91-144.08c0-0.47-0.14-0.83-0.4-1.08c-0.25-0.26-0.72-0.51-1.4-0.75c-0.67-0.25-1.18-0.51-1.54-0.77
					c-0.36-0.26-0.64-0.56-0.81-0.9c-0.17-0.34-0.25-0.73-0.25-1.17c0-0.76,0.25-1.39,0.75-1.88c0.51-0.5,1.18-0.75,2-0.75
					c0.55,0,1.05,0.14,1.48,0.4c0.44,0.25,0.78,0.6,1.02,1.04c0.23,0.45,0.35,0.94,0.35,1.48h-1.21c0-0.59-0.15-1.05-0.44-1.38
					c-0.28-0.33-0.68-0.5-1.21-0.5c-0.49,0-0.87,0.14-1.15,0.42c-0.27,0.27-0.4,0.65-0.4,1.15c0,0.41,0.15,0.74,0.44,1.02
					c0.29,0.27,0.73,0.5,1.33,0.71c0.94,0.32,1.61,0.71,2.02,1.17c0.4,0.45,0.6,1.04,0.6,1.77c0,0.78-0.25,1.41-0.75,1.88
					c-0.5,0.46-1.19,0.69-2.06,0.69c-0.56,0-1.07-0.12-1.54-0.35c-0.46-0.25-0.83-0.59-1.1-1.02c-0.27-0.44-0.4-0.95-0.4-1.52h1.21
					c0,0.58,0.16,1.04,0.48,1.38c0.33,0.33,0.78,0.5,1.35,0.5c0.54,0,0.94-0.13,1.21-0.4C-92.05-143.23-91.91-143.6-91.91-144.08z"
					/>
			</g>
		</g>
	</g>
</g>
</svg>
